<svg width="32" height="16" viewBox="0 0 32 16" fill="none" xmlns="http://www.w3.org/2000/svg">
<path d="M1.33333 16C0.955556 16 0.639111 15.872 0.384 15.616C0.128889 15.36 0.000888889 15.0436 0 14.6667V13.9C0 12.9444 0.488889 12.1667 1.46667 11.5667C2.44444 10.9667 3.73333 10.6667 5.33333 10.6667C5.62222 10.6667 5.9 10.6724 6.16667 10.684C6.43333 10.6956 6.68889 10.7231 6.93333 10.7667C6.62222 11.2333 6.38889 11.7222 6.23333 12.2333C6.07778 12.7444 6 13.2778 6 13.8333V16H1.33333ZM9.33333 16C8.95556 16 8.63911 15.872 8.384 15.616C8.12889 15.36 8.00089 15.0436 8 14.6667V13.8333C8 13.1222 8.19467 12.472 8.584 11.8827C8.97333 11.2933 9.52311 10.7769 10.2333 10.3333C10.9444 9.88889 11.7947 9.55556 12.784 9.33333C13.7733 9.11111 14.8453 9 16 9C17.1778 9 18.2613 9.11111 19.2507 9.33333C20.24 9.55556 21.0898 9.88889 21.8 10.3333C22.5111 10.7778 23.0556 11.2947 23.4333 11.884C23.8111 12.4733 24 13.1231 24 13.8333V14.6667C24 15.0444 23.8724 15.3613 23.6173 15.6173C23.3622 15.8733 23.0453 16.0009 22.6667 16H9.33333ZM26 16V13.8333C26 13.2556 25.928 12.7111 25.784 12.2C25.64 11.6889 25.4231 11.2111 25.1333 10.7667C25.3778 10.7222 25.628 10.6947 25.884 10.684C26.14 10.6733 26.4009 10.6676 26.6667 10.6667C28.2667 10.6667 29.5556 10.9613 30.5333 11.5507C31.5111 12.14 32 12.9231 32 13.9V14.6667C32 15.0444 31.872 15.3613 31.616 15.6173C31.36 15.8733 31.0436 16.0009 30.6667 16H26ZM5.33333 9.33333C4.6 9.33333 3.97244 9.07244 3.45067 8.55067C2.92889 8.02889 2.66756 7.40089 2.66667 6.66667C2.66667 5.91111 2.928 5.27778 3.45067 4.76667C3.97333 4.25555 4.60089 4 5.33333 4C6.08889 4 6.72222 4.25555 7.23333 4.76667C7.74444 5.27778 8 5.91111 8 6.66667C8 7.4 7.74444 8.028 7.23333 8.55067C6.72222 9.07333 6.08889 9.33422 5.33333 9.33333ZM26.6667 9.33333C25.9333 9.33333 25.3058 9.07244 24.784 8.55067C24.2622 8.02889 24.0009 7.40089 24 6.66667C24 5.91111 24.2613 5.27778 24.784 4.76667C25.3067 4.25555 25.9342 4 26.6667 4C27.4222 4 28.0556 4.25555 28.5667 4.76667C29.0778 5.27778 29.3333 5.91111 29.3333 6.66667C29.3333 7.4 29.0778 8.028 28.5667 8.55067C28.0556 9.07333 27.4222 9.33422 26.6667 9.33333ZM16 8C14.8889 8 13.9444 7.61111 13.1667 6.83333C12.3889 6.05556 12 5.11111 12 4C12 2.86667 12.3889 1.91689 13.1667 1.15067C13.9444 0.384444 14.8889 0.000888889 16 0C17.1333 0 18.0836 0.383555 18.8507 1.15067C19.6178 1.91778 20.0009 2.86756 20 4C20 5.11111 19.6169 6.05556 18.8507 6.83333C18.0844 7.61111 17.1342 8 16 8Z" fill="#3B3B3B"/>
</svg>
