<svg width="30" height="30" viewBox="0 0 30 30" fill="none" xmlns="http://www.w3.org/2000/svg">
<path d="M15 0C6.72001 0 0 6.58001 0 14.6875C0 22.795 6.72001 29.3751 15 29.3751C23.28 29.3751 30.0001 22.795 30.0001 14.6875C30.0001 6.58001 23.28 0 15 0ZM15 4.40626C17.49 4.40626 19.5 6.37439 19.5 8.81252C19.5 11.2506 17.49 13.2188 15 13.2188C12.51 13.2188 10.5 11.2506 10.5 8.81252C10.5 6.37439 12.51 4.40626 15 4.40626ZM15 25.2626C11.25 25.2626 7.93502 23.3825 6.00001 20.5332C6.04501 17.6103 12 16.0094 15 16.0094C17.985 16.0094 23.9551 17.6103 24.0001 20.5332C22.065 23.3825 18.75 25.2626 15 25.2626Z" fill="black"/>
</svg>
