<svg width="13" height="8" viewBox="0 0 13 8" fill="none" xmlns="http://www.w3.org/2000/svg">
<path d="M6.49996 0.000130236C6.65542 0.000130236 6.80116 0.0247409 6.93719 0.0739628C7.07321 0.123184 7.19952 0.207734 7.31611 0.327613L12.6794 5.80549C12.8931 6.02381 13 6.30168 13 6.63908C13 6.97649 12.8931 7.25435 12.6794 7.47267C12.4656 7.69099 12.1936 7.80015 11.8632 7.80015C11.5329 7.80015 11.2608 7.69099 11.0471 7.47267L6.49996 2.82838L1.95286 7.47267C1.7391 7.69099 1.46705 7.80015 1.13671 7.80015C0.80636 7.80015 0.534313 7.69099 0.320559 7.47267C0.106807 7.25435 -7.18546e-05 6.97649 -7.18546e-05 6.63908C-7.18546e-05 6.30168 0.106807 6.02381 0.320559 5.80549L5.68382 0.327613C5.80041 0.208528 5.92672 0.123978 6.06274 0.0739628C6.19877 0.023947 6.34451 -0.000663657 6.49996 0.000130236Z" fill="#1A1A1A"/>
</svg>
