<svg width="14" height="13" viewBox="0 0 14 13" fill="none" xmlns="http://www.w3.org/2000/svg">
<path d="M5.65322 13C5.47365 13 5.31802 12.9458 5.18633 12.8375C5.05465 12.7292 4.97683 12.5938 4.95289 12.4313L4.73741 10.92C4.58178 10.8658 4.43525 10.8008 4.29782 10.725C4.16039 10.6492 4.02559 10.5679 3.89342 10.4812L2.33116 11.0663C2.16356 11.1313 1.99596 11.1395 1.82836 11.091C1.66076 11.0424 1.52907 10.9475 1.4333 10.8063L0.104478 8.71C0.00870645 8.56917 -0.021222 8.4175 0.0146922 8.255C0.0506063 8.0925 0.140392 7.9625 0.284048 7.865L1.63083 6.93875C1.61886 6.86292 1.61287 6.7899 1.61287 6.7197V6.28095C1.61287 6.21032 1.61886 6.13708 1.63083 6.06125L0.284048 5.135C0.140392 5.0375 0.0506063 4.9075 0.0146922 4.745C-0.021222 4.5825 0.00870645 4.43083 0.104478 4.29L1.4333 2.19375C1.52907 2.05292 1.66076 1.95823 1.82836 1.9097C1.99596 1.86117 2.16356 1.86918 2.33116 1.93375L3.89342 2.51875C4.02511 2.43208 4.16278 2.35083 4.30644 2.275C4.45009 2.19917 4.59375 2.13417 4.73741 2.08L4.95289 0.56875C4.97683 0.40625 5.05465 0.270833 5.18633 0.1625C5.31802 0.0541667 5.47365 0 5.65322 0H8.34678C8.52635 0 8.68198 0.0541667 8.81367 0.1625C8.94535 0.270833 9.02317 0.40625 9.04711 0.56875L9.26259 2.08C9.41822 2.13417 9.56499 2.19917 9.7029 2.275C9.84081 2.35083 9.97537 2.43208 10.1066 2.51875L11.6688 1.93375C11.8364 1.86875 12.004 1.86052 12.1716 1.90905C12.3392 1.95758 12.4709 2.05248 12.5667 2.19375L13.8955 4.29C13.9913 4.43083 14.0212 4.5825 13.9853 4.745C13.9494 4.9075 13.8596 5.0375 13.716 5.135L12.3692 6.06125C12.3811 6.13708 12.3871 6.21032 12.3871 6.28095V6.71905C12.3871 6.78968 12.3752 6.86292 12.3512 6.93875L13.698 7.865C13.8417 7.9625 13.9314 8.0925 13.9674 8.255C14.0033 8.4175 13.9733 8.56917 13.8776 8.71L12.5487 10.79C12.453 10.9308 12.3184 11.0283 12.1451 11.0825C11.9717 11.1367 11.801 11.1313 11.6329 11.0663L10.1066 10.4812C9.97489 10.5679 9.83722 10.6492 9.69356 10.725C9.54991 10.8008 9.40625 10.8658 9.26259 10.92L9.04711 12.4313C9.02317 12.5938 8.94535 12.7292 8.81367 12.8375C8.68198 12.9458 8.52635 13 8.34678 13H5.65322ZM7.03591 8.775C7.73025 8.775 8.32284 8.55292 8.81367 8.10875C9.30449 7.66458 9.54991 7.12833 9.54991 6.5C9.54991 5.87167 9.30449 5.33542 8.81367 4.89125C8.32284 4.44708 7.73025 4.225 7.03591 4.225C6.3296 4.225 5.7339 4.44708 5.24882 4.89125C4.76374 5.33542 4.52144 5.87167 4.52192 6.5C4.52192 7.12833 4.76446 7.66458 5.24954 8.10875C5.73462 8.55292 6.33008 8.775 7.03591 8.775Z" fill="#1A1A1A"/>
</svg>
