<svg width="45" height="45" viewBox="0 0 45 45" fill="none" xmlns="http://www.w3.org/2000/svg">
<path d="M12.375 39C11.8969 39 11.4964 38.8383 11.1735 38.5149C10.8506 38.1916 10.6886 37.7919 10.6875 37.3158V33.8632C10.1812 33.3018 9.77344 32.6775 9.46406 31.9903C9.15469 31.3032 9 30.552 9 29.7368V13.7368C9 11.407 10.0828 9.70203 12.2484 8.62189C14.4141 7.54175 17.8313 7.00112 22.5 7C27.3375 7 30.7969 7.5193 32.8781 8.55789C34.9594 9.59649 36 11.3228 36 13.7368V29.7368C36 30.5509 35.8453 31.302 35.5359 31.9903C35.2266 32.6786 34.8188 33.3029 34.3125 33.8632V37.3158C34.3125 37.793 34.1505 38.1933 33.8265 38.5166C33.5025 38.84 33.102 39.0011 32.625 39H30.9375C30.4594 39 30.0589 38.8383 29.736 38.5149C29.4131 38.1916 29.2511 37.7919 29.25 37.3158V35.6316H15.75V37.3158C15.75 37.793 15.588 38.1933 15.264 38.5166C14.94 38.84 14.5395 39.0011 14.0625 39H12.375ZM12.375 20.4737H32.625V15.4211H12.375V20.4737ZM16.5938 30.5789C17.2969 30.5789 17.8948 30.3336 18.3876 29.8429C18.8803 29.3523 19.1261 28.7555 19.125 28.0526C19.125 27.3509 18.8792 26.7547 18.3876 26.264C17.8959 25.7733 17.298 25.5274 16.5938 25.5263C15.8906 25.5263 15.2933 25.7722 14.8016 26.264C14.31 26.7558 14.0636 27.352 14.0625 28.0526C14.0625 28.7544 14.3089 29.3512 14.8016 29.8429C15.2944 30.3347 15.8917 30.5801 16.5938 30.5789ZM28.4062 30.5789C29.1094 30.5789 29.7073 30.3336 30.2001 29.8429C30.6928 29.3523 30.9386 28.7555 30.9375 28.0526C30.9375 27.3509 30.6917 26.7547 30.2001 26.264C29.7084 25.7733 29.1105 25.5274 28.4062 25.5263C27.7031 25.5263 27.1057 25.7722 26.6141 26.264C26.1225 26.7558 25.8761 27.352 25.875 28.0526C25.875 28.7544 26.1214 29.3512 26.6141 29.8429C27.1069 30.3347 27.7043 30.5801 28.4062 30.5789Z" fill="#3B3B3B"/>
<rect x="0.5" y="0.5" width="44" height="44" rx="19.5" stroke="#DF9AAC"/>
</svg>
