<svg width="13" height="12" viewBox="0 0 13 12" fill="none" xmlns="http://www.w3.org/2000/svg">
<path d="M1.47727 12C1.07102 12 0.723371 11.8696 0.434318 11.6087C0.145265 11.3478 0.000492424 11.0338 0 10.6667V1.33333C0 0.966666 0.144773 0.652889 0.434318 0.392C0.723864 0.131111 1.07152 0.000444444 1.47727 0H5.90909C6.11837 0 6.29392 0.0640001 6.43574 0.192C6.57756 0.32 6.64822 0.478222 6.64773 0.666667C6.64773 0.855555 6.57682 1.014 6.435 1.142C6.29318 1.27 6.11788 1.33378 5.90909 1.33333H1.47727V10.6667H5.90909C6.11837 10.6667 6.29392 10.7307 6.43574 10.8587C6.57756 10.9867 6.64822 11.1449 6.64773 11.3333C6.64773 11.5222 6.57682 11.6807 6.435 11.8087C6.29318 11.9367 6.11788 12.0004 5.90909 12H1.47727ZM10.4702 6.66667H5.17045C4.96117 6.66667 4.78587 6.60266 4.64455 6.47467C4.50322 6.34666 4.43231 6.18844 4.43182 6C4.43182 5.81111 4.50273 5.65289 4.64455 5.52533C4.78636 5.39778 4.96167 5.33378 5.17045 5.33333H10.4702L9.08523 4.08333C8.94981 3.96111 8.8821 3.81111 8.8821 3.63333C8.8821 3.45555 8.94981 3.3 9.08523 3.16667C9.22064 3.03333 9.39299 2.96378 9.60227 2.958C9.81155 2.95222 9.99006 3.01622 10.1378 3.15L12.7784 5.53333C12.9261 5.66667 13 5.82222 13 6C13 6.17778 12.9261 6.33333 12.7784 6.46666L10.1378 8.85C9.99006 8.98333 9.81475 9.04733 9.61188 9.042C9.409 9.03666 9.23345 8.96711 9.08523 8.83333C8.94981 8.7 8.8853 8.54178 8.8917 8.35866C8.89811 8.17555 8.96877 8.02267 9.10369 7.9L10.4702 6.66667Z" fill="#1A1A1A"/>
</svg>
