<svg width="31" height="30" viewBox="0 0 31 30" fill="none" xmlns="http://www.w3.org/2000/svg">
<path d="M7.57779 21.456L12.8306 16.4221L16.275 19.7231L22.3889 13.9052V16.5046H25.8334V8.25232H17.2222V11.5533H19.9347L16.275 15.0605L12.8306 11.7596L5.16667 19.1454L7.57779 21.456ZM3.44445 29.7084C2.49722 29.7084 1.68663 29.3854 1.01267 28.7395C0.338704 28.0937 0.00114815 27.3163 0 26.4074V3.30093C0 2.39317 0.337556 1.61636 1.01267 0.970473C1.68778 0.324591 2.49837 0.00110031 3.44445 0H27.5556C28.5028 0 29.314 0.323491 29.9891 0.970473C30.6642 1.61746 31.0012 2.39427 31 3.30093V26.4074C31 27.3152 30.6631 28.0926 29.9891 28.7395C29.3151 29.3865 28.504 29.7095 27.5556 29.7084H3.44445Z" fill="#1A1A1A"/>
</svg>
