<svg width="26" height="32" viewBox="0 0 26 32" fill="none" xmlns="http://www.w3.org/2000/svg">
<path d="M1.60256e-06 22.7368V6.73685C1.60256e-06 5.24913 0.372669 4.06289 1.118 3.17812C1.86334 2.29334 2.84483 1.61966 4.0625 1.15706C5.28125 0.694468 6.66954 0.385696 8.22738 0.230749C9.78521 0.0758017 11.3761 -0.00111069 13 1.21166e-05C14.7875 1.21166e-05 16.4737 0.0774858 18.0586 0.232433C19.6435 0.38738 21.0248 0.696152 22.2024 1.15875C23.38 1.62134 24.3073 2.29503 24.9844 3.1798C25.6615 4.06457 26 5.25026 26 6.73685V22.7368C26 24.393 25.4518 25.7898 24.3555 26.9272C23.2592 28.0646 21.9115 28.6327 20.3125 28.6316L22.75 31.1579V32H19.5L16.25 28.6316H9.75L6.5 32H3.25V31.1579L5.6875 28.6316C4.08958 28.6316 2.74192 28.0634 1.6445 26.9272C0.547085 25.7909 -0.00108173 24.3941 1.60256e-06 22.7368ZM3.25 13.4737H11.375V8.42106H3.25V13.4737ZM14.625 13.4737H22.75V8.42106H14.625V13.4737ZM7.3125 23.579C8.01667 23.579 8.59896 23.3404 9.05937 22.8632C9.51979 22.386 9.75 21.7825 9.75 21.0526C9.75 20.3228 9.51979 19.7193 9.05937 19.2421C8.59896 18.7649 8.01667 18.5263 7.3125 18.5263C6.60833 18.5263 6.02604 18.7649 5.56563 19.2421C5.10521 19.7193 4.875 20.3228 4.875 21.0526C4.875 21.7825 5.10521 22.386 5.56563 22.8632C6.02604 23.3404 6.60833 23.579 7.3125 23.579ZM18.6875 23.579C19.3917 23.579 19.974 23.3404 20.4344 22.8632C20.8948 22.386 21.125 21.7825 21.125 21.0526C21.125 20.3228 20.8948 19.7193 20.4344 19.2421C19.974 18.7649 19.3917 18.5263 18.6875 18.5263C17.9833 18.5263 17.401 18.7649 16.9406 19.2421C16.4802 19.7193 16.25 20.3228 16.25 21.0526C16.25 21.7825 16.4802 22.386 16.9406 22.8632C17.401 23.3404 17.9833 23.579 18.6875 23.579Z" fill="#3B3B3B"/>
</svg>
