<svg width="31" height="30" viewBox="0 0 31 30" fill="none" xmlns="http://www.w3.org/2000/svg">
<path d="M15.5 17.825C15.0121 17.825 14.6033 17.6824 14.2738 17.3972C13.9443 17.112 13.7789 16.7595 13.7778 16.3396C13.7778 15.9187 13.9431 15.5662 14.2738 15.282C14.6045 14.9978 15.0132 14.8552 15.5 14.8542C15.988 14.8542 16.3973 14.9968 16.728 15.282C17.0586 15.5672 17.2234 15.9197 17.2222 16.3396C17.2222 16.7605 17.0569 17.1135 16.7262 17.3987C16.3956 17.6839 15.9868 17.826 15.5 17.825ZM8.61112 17.825C8.12316 17.825 7.71442 17.6824 7.3849 17.3972C7.05538 17.112 6.89004 16.7595 6.8889 16.3396C6.8889 15.9187 7.05423 15.5662 7.3849 15.282C7.71556 14.9978 8.1243 14.8552 8.61112 14.8542C9.09908 14.8542 9.5084 14.9968 9.83907 15.282C10.1697 15.5672 10.3345 15.9197 10.3333 16.3396C10.3333 16.7605 10.168 17.1135 9.83734 17.3987C9.50668 17.6839 9.09794 17.826 8.61112 17.825ZM22.3889 17.825C21.9009 17.825 21.4922 17.6824 21.1627 17.3972C20.8332 17.112 20.6678 16.7595 20.6667 16.3396C20.6667 15.9187 20.832 15.5662 21.1627 15.282C21.4934 14.9978 21.9021 14.8552 22.3889 14.8542C22.8769 14.8542 23.2862 14.9968 23.6169 15.282C23.9475 15.5672 24.1123 15.9197 24.1111 16.3396C24.1111 16.7605 23.9458 17.1135 23.6151 17.3987C23.2845 17.6839 22.8757 17.826 22.3889 17.825ZM15.5 23.7667C15.0121 23.7667 14.6033 23.6241 14.2738 23.3389C13.9443 23.0537 13.7789 22.7012 13.7778 22.2813C13.7778 21.8604 13.9431 21.5079 14.2738 21.2237C14.6045 20.9394 15.0132 20.7968 15.5 20.7959C15.988 20.7959 16.3973 20.9385 16.728 21.2237C17.0586 21.5089 17.2234 21.8614 17.2222 22.2813C17.2222 22.7021 17.0569 23.0552 16.7262 23.3404C16.3956 23.6256 15.9868 23.7677 15.5 23.7667ZM8.61112 23.7667C8.12316 23.7667 7.71442 23.6241 7.3849 23.3389C7.05538 23.0537 6.89004 22.7012 6.8889 22.2813C6.8889 21.8604 7.05423 21.5079 7.3849 21.2237C7.71556 20.9394 8.1243 20.7968 8.61112 20.7959C9.09908 20.7959 9.5084 20.9385 9.83907 21.2237C10.1697 21.5089 10.3345 21.8614 10.3333 22.2813C10.3333 22.7021 10.168 23.0552 9.83734 23.3404C9.50668 23.6256 9.09794 23.7677 8.61112 23.7667ZM22.3889 23.7667C21.9009 23.7667 21.4922 23.6241 21.1627 23.3389C20.8332 23.0537 20.6678 22.7012 20.6667 22.2813C20.6667 21.8604 20.832 21.5079 21.1627 21.2237C21.4934 20.9394 21.9021 20.7968 22.3889 20.7959C22.8769 20.7959 23.2862 20.9385 23.6169 21.2237C23.9475 21.5089 24.1123 21.8614 24.1111 22.2813C24.1111 22.7021 23.9458 23.0552 23.6151 23.3404C23.2845 23.6256 22.8757 23.7677 22.3889 23.7667ZM3.44445 29.7084C2.49722 29.7084 1.68663 29.4177 1.01267 28.8364C0.338704 28.2551 0.00114815 27.5555 0 26.7375V5.94167C0 5.12469 0.337556 4.42556 1.01267 3.84426C1.68778 3.26297 2.49837 2.97183 3.44445 2.97084H5.16667V0H8.61112V2.97084H22.3889V0H25.8334V2.97084H27.5556C28.5028 2.97084 29.314 3.26198 29.9891 3.84426C30.6642 4.42655 31.0012 5.12568 31 5.94167V26.7375C31 27.5545 30.6631 28.2541 29.9891 28.8364C29.3151 29.4187 28.504 29.7094 27.5556 29.7084H3.44445ZM3.44445 26.7375H27.5556V11.8833H3.44445V26.7375Z" fill="#1A1A1A"/>
</svg>
