<svg width="13" height="8" viewBox="0 0 13 8" fill="none" xmlns="http://www.w3.org/2000/svg">
<path d="M6.50004 7.80002C6.34458 7.80002 6.19884 7.77541 6.06281 7.72619C5.92679 7.67697 5.80048 7.59242 5.68389 7.47254L0.320629 1.99466C0.106876 1.77634 0 1.49848 0 1.16107C0 0.823666 0.106876 0.545803 0.320629 0.327481C0.534382 0.10916 0.806432 0 1.13678 0C1.46712 0 1.73917 0.10916 1.95293 0.327481L6.50004 4.97177L11.0471 0.327481C11.2609 0.10916 11.5329 0 11.8633 0C12.1936 0 12.4657 0.10916 12.6794 0.327481C12.8932 0.545803 13.0001 0.823666 13.0001 1.16107C13.0001 1.49848 12.8932 1.77634 12.6794 1.99466L7.31618 7.47254C7.19959 7.59163 7.07328 7.67618 6.93726 7.72619C6.80123 7.77621 6.65549 7.80082 6.50004 7.80002Z" fill="#1A1A1A"/>
</svg>
