<svg width="18" height="29" viewBox="0 0 18 29" fill="none" xmlns="http://www.w3.org/2000/svg">
<path d="M6.78461 18.0744L4.53461 27.9209C4.46538 28.2357 4.29784 28.4942 4.032 28.6965C3.76615 28.8988 3.46061 29 3.11538 29C2.65385 29 2.28461 28.8314 2.00769 28.4942C1.73077 28.157 1.63846 27.7748 1.73077 27.3477L5.26154 9.98139L2.76923 10.9256V14.1628C2.76923 14.545 2.63631 14.8655 2.37046 15.1245C2.10461 15.3835 1.776 15.5125 1.38461 15.5116C0.992307 15.5116 0.663692 15.3821 0.398769 15.1232C0.133846 14.8642 0.000923077 14.5441 0 14.1628V10.0488C0 9.77907 0.0752309 9.53763 0.225692 9.32451C0.376154 9.11139 0.577846 8.94818 0.830769 8.83488L6.99231 6.27209C7.31538 6.13721 7.656 6.05853 8.01415 6.03605C8.3723 6.01357 8.71246 6.05853 9.03461 6.17093C9.35769 6.28333 9.66369 6.4407 9.95261 6.64302C10.2415 6.84535 10.4778 7.10388 10.6615 7.4186L12.0462 9.57674C12.3461 10.0264 12.6983 10.4535 13.1026 10.8581C13.5069 11.2628 13.9625 11.6112 14.4692 11.9035C14.7923 12.0833 15.15 12.2465 15.5423 12.3931C15.9346 12.5397 16.3269 12.6462 16.7192 12.7128C17.0885 12.7802 17.3945 12.9434 17.6372 13.2024C17.88 13.4614 18.0009 13.7815 18 14.1628C18 14.545 17.8615 14.8597 17.5846 15.107C17.3077 15.3543 16.9731 15.4554 16.5808 15.4105C15.2885 15.2306 14.1286 14.8372 13.1012 14.2302C12.0738 13.6233 11.1798 12.8926 10.4192 12.0384L9.55384 16.186L12.0462 18.4791C12.1846 18.614 12.2885 18.7659 12.3577 18.935C12.4269 19.104 12.4615 19.278 12.4615 19.457V27.6512C12.4615 28.0333 12.3286 28.3539 12.0628 28.6129C11.7969 28.8719 11.4683 29.0009 11.0769 29C10.6846 29 10.356 28.8705 10.0911 28.6115C9.82615 28.3526 9.69323 28.0324 9.6923 27.6512V20.2326L6.78461 18.0744ZM10.3846 5.39535C9.62307 5.39535 8.97138 5.13143 8.42954 4.60358C7.88769 4.07574 7.61631 3.44043 7.61538 2.69767C7.61538 1.95581 7.88677 1.32096 8.42954 0.793116C8.97231 0.265271 9.624 0.000899225 10.3846 0C11.1462 0 11.7983 0.264372 12.3411 0.793116C12.8838 1.32186 13.1548 1.95671 13.1538 2.69767C13.1538 3.43953 12.8829 4.07484 12.3411 4.60358C11.7992 5.13233 11.1471 5.39625 10.3846 5.39535Z" fill="#3B3B3B"/>
</svg>
