<svg width="45" height="45" viewBox="0 0 45 45" fill="none" xmlns="http://www.w3.org/2000/svg">
<path d="M21.4958 24H18.7979H24.5792H21.4958ZM12.7083 36C10.5757 36 8.75807 35.2685 7.25546 33.8055C5.75285 32.3425 5.00103 30.574 5 28.5C5 26.425 5.75182 24.6565 7.25546 23.1945C8.7591 21.7325 10.5767 21.001 12.7083 21H30.5917L27.5083 18H23.5C23.0632 18 22.6973 17.856 22.4023 17.568C22.1074 17.28 21.9594 16.924 21.9583 16.5C21.9583 16.075 22.1063 15.719 22.4023 15.432C22.6983 15.145 23.0642 15.001 23.5 15H27.4698C27.8809 15 28.273 15.075 28.6461 15.225C29.0192 15.375 29.3465 15.5875 29.6281 15.8625L34.9854 21.075C36.9896 21.225 38.6597 22.0125 39.9958 23.4375C41.3319 24.8625 42 26.55 42 28.5C42 30.575 41.2482 32.344 39.7445 33.807C38.2409 35.27 36.4233 36.001 34.2917 36C32.159 36 30.3414 35.2685 28.8388 33.8055C27.3362 32.3425 26.5844 30.574 26.5833 28.5C26.5833 28.05 26.6157 27.606 26.6805 27.168C26.7452 26.73 26.867 26.299 27.0458 25.875L23.2687 29.55C23.1146 29.7 22.9414 29.8125 22.7492 29.8875C22.557 29.9625 22.3576 30 22.151 30H20.2625C19.9028 31.75 19.0163 33.1875 17.6031 34.3125C16.1899 35.4375 14.5583 36 12.7083 36ZM34.2917 33C35.5764 33 36.6684 32.5625 37.5677 31.6875C38.467 30.8125 38.9167 29.75 38.9167 28.5C38.9167 27.25 38.467 26.1875 37.5677 25.3125C36.6684 24.4375 35.5764 24 34.2917 24C33.0069 24 31.9149 24.4375 31.0156 25.3125C30.1163 26.1875 29.6667 27.25 29.6667 28.5C29.6667 29.75 30.1163 30.8125 31.0156 31.6875C31.9149 32.5625 33.0069 33 34.2917 33ZM12.7083 33C13.6847 33 14.565 32.725 15.3492 32.175C16.1334 31.625 16.692 30.9 17.025 30H14.25C13.8132 30 13.4473 29.856 13.1523 29.568C12.8574 29.28 12.7094 28.924 12.7083 28.5C12.7083 28.075 12.8563 27.719 13.1523 27.432C13.4483 27.145 13.8142 27.001 14.25 27H17.025C16.691 26.1 16.1319 25.375 15.3477 24.825C14.5635 24.275 13.6837 24 12.7083 24C11.4236 24 10.3316 24.4375 9.43229 25.3125C8.53299 26.1875 8.08333 27.25 8.08333 28.5C8.08333 29.75 8.53299 30.8125 9.43229 31.6875C10.3316 32.5625 11.4236 33 12.7083 33ZM20.3396 27H21.4958L24.5792 24H18.7979C19.1833 24.425 19.5045 24.8875 19.7615 25.3875C20.0184 25.8875 20.2111 26.425 20.3396 27Z" fill="#3B3B3B"/>
<rect x="0.5" y="0.5" width="44" height="44" rx="19.5" stroke="#DF9AAC"/>
<path d="M21.4958 24H18.7979H24.5792H21.4958ZM12.7083 36C10.5757 36 8.75807 35.2685 7.25546 33.8055C5.75285 32.3425 5.00103 30.574 5 28.5C5 26.425 5.75182 24.6565 7.25546 23.1945C8.7591 21.7325 10.5767 21.001 12.7083 21H30.5917L27.5083 18H23.5C23.0632 18 22.6973 17.856 22.4023 17.568C22.1074 17.28 21.9594 16.924 21.9583 16.5C21.9583 16.075 22.1063 15.719 22.4023 15.432C22.6983 15.145 23.0642 15.001 23.5 15H27.4698C27.8809 15 28.273 15.075 28.6461 15.225C29.0192 15.375 29.3465 15.5875 29.6281 15.8625L34.9854 21.075C36.9896 21.225 38.6597 22.0125 39.9958 23.4375C41.3319 24.8625 42 26.55 42 28.5C42 30.575 41.2482 32.344 39.7445 33.807C38.2409 35.27 36.4233 36.001 34.2917 36C32.159 36 30.3414 35.2685 28.8388 33.8055C27.3362 32.3425 26.5844 30.574 26.5833 28.5C26.5833 28.05 26.6157 27.606 26.6805 27.168C26.7452 26.73 26.867 26.299 27.0458 25.875L23.2687 29.55C23.1146 29.7 22.9414 29.8125 22.7492 29.8875C22.557 29.9625 22.3576 30 22.151 30H20.2625C19.9028 31.75 19.0163 33.1875 17.6031 34.3125C16.1899 35.4375 14.5583 36 12.7083 36ZM34.2917 33C35.5764 33 36.6684 32.5625 37.5677 31.6875C38.467 30.8125 38.9167 29.75 38.9167 28.5C38.9167 27.25 38.467 26.1875 37.5677 25.3125C36.6684 24.4375 35.5764 24 34.2917 24C33.0069 24 31.9149 24.4375 31.0156 25.3125C30.1163 26.1875 29.6667 27.25 29.6667 28.5C29.6667 29.75 30.1163 30.8125 31.0156 31.6875C31.9149 32.5625 33.0069 33 34.2917 33ZM12.7083 33C13.6847 33 14.565 32.725 15.3492 32.175C16.1334 31.625 16.692 30.9 17.025 30H14.25C13.8132 30 13.4473 29.856 13.1523 29.568C12.8574 29.28 12.7094 28.924 12.7083 28.5C12.7083 28.075 12.8563 27.719 13.1523 27.432C13.4483 27.145 13.8142 27.001 14.25 27H17.025C16.691 26.1 16.1319 25.375 15.3477 24.825C14.5635 24.275 13.6837 24 12.7083 24C11.4236 24 10.3316 24.4375 9.43229 25.3125C8.53299 26.1875 8.08333 27.25 8.08333 28.5C8.08333 29.75 8.53299 30.8125 9.43229 31.6875C10.3316 32.5625 11.4236 33 12.7083 33ZM20.3396 27H21.4958L24.5792 24H18.7979C19.1833 24.425 19.5045 24.8875 19.7615 25.3875C20.0184 25.8875 20.2111 26.425 20.3396 27Z" fill="#3B3B3B"/>
<rect x="0.5" y="0.5" width="44" height="44" rx="19.5" stroke="#DF9AAC"/>
</svg>
