<svg width="30" height="29" viewBox="0 0 30 29" fill="none" xmlns="http://www.w3.org/2000/svg">
<path d="M3.33334 28.7501C2.41667 28.7501 1.63223 28.4688 0.980002 27.9062C0.327779 27.3437 0.00111111 26.6666 0 25.8751V5.75001C0 4.95939 0.326667 4.2828 0.980002 3.72026C1.63334 3.15771 2.41778 2.87596 3.33334 2.87501H5.00001V0H8.33335V2.87501H21.6667V0H25V2.87501H26.6667C27.5834 2.87501 28.3684 3.15676 29.0217 3.72026C29.6751 4.28376 30.0012 4.96034 30.0001 5.75001V25.8751C30.0001 26.6657 29.6739 27.3427 29.0217 27.9062C28.3695 28.4697 27.5845 28.751 26.6667 28.7501H3.33334ZM3.33334 25.8751H26.6667V11.5H3.33334V25.8751Z" fill="#1A1A1A"/>
</svg>
